<svg width="512" height="512" viewBox="0 0 512 512" fill="none" xmlns="http://www.w3.org/2000/svg">
<path d="M190.715 224.351C188.961 224.738 187.18 225.401 185.472 226.446C181.435 228.772 179.459 232.307 177.174 238.63C176.147 241.181 176.383 244.062 177.808 246.412L238.991 347.331C240.297 349.484 242.972 350.375 245.311 349.437L279.007 335.913C279.871 335.57 280.685 335.113 281.425 334.553C292.046 326.446 291.949 310.617 283.002 301.688L212.722 231.542C208.31 227.139 202.963 224.379 196.324 223.94C197.025 223.94 195.055 223.888 195.055 223.888L190.715 224.351ZM164.33 270.51L149.805 306.575C148.778 309.125 149.013 312.006 150.438 314.356L183.851 369.459C185.157 371.612 187.832 372.503 190.171 371.565L217.9 360.442C220.026 359.59 220.879 357.038 219.692 355.081L168.225 270.195C167.294 268.657 165.002 268.842 164.33 270.51ZM135.605 341.815L119.776 381.115C116.962 388.059 122.214 394.976 128.873 395.221C131.265 395.298 134.955 393.724 137.196 392.826L159.367 383.926C163.278 382.356 164.848 377.66 162.666 374.059L142.769 341.236C141.055 338.407 136.841 338.746 135.605 341.815Z" fill="white"/>
<path d="M357.952 156.725C356.601 156.652 355.249 156.845 353.974 157.295C352.699 157.745 351.525 158.442 350.521 159.347C349.516 160.251 348.701 161.344 348.121 162.564C347.541 163.784 347.209 165.106 347.143 166.455C347.143 166.455 346.962 169.479 346.233 172.655C345.946 173.91 346.44 173.352 346.026 174.067C344.446 173.079 342.55 171.739 339.51 170.69C336.312 169.587 331.136 169.143 326.731 171.446C322.327 173.748 319.714 178.275 318.802 181.528C317.938 184.61 317.927 186.931 317.842 188.787C317.025 188.71 317.764 188.658 316.58 188.184C313.551 186.97 310.973 185.361 310.973 185.361C309.826 184.651 308.55 184.174 307.218 183.957C305.886 183.74 304.524 183.787 303.211 184.096C301.897 184.405 300.657 184.97 299.562 185.758C298.468 186.546 297.54 187.541 296.831 188.688C295.411 190.996 294.964 193.771 295.589 196.407C296.213 199.043 297.859 201.324 300.164 202.753C300.164 202.753 303.989 205.202 308.953 207.189C313.917 209.176 320.55 212.553 329.359 207.945C333.763 205.643 336.377 201.115 337.289 197.863C337.889 195.723 337.845 194.352 337.946 192.821C339.262 193.611 340.39 194.417 342.491 195.139C345.691 196.241 350.866 196.688 355.27 194.383C364.078 189.777 365.041 182.396 366.231 177.193C367.42 171.989 367.645 167.464 367.645 167.464C367.78 164.758 366.835 162.108 365.018 160.096C363.2 158.084 360.663 156.871 357.952 156.725Z" fill="white"/>
<path d="M313.74 155.599C311.174 158.161 307.693 159.6 304.064 159.6C300.435 159.6 296.954 158.161 294.388 155.599C293.117 154.331 292.109 152.825 291.421 151.168C290.733 149.511 290.379 147.735 290.379 145.942C290.379 144.148 290.733 142.372 291.421 140.715C292.109 139.058 293.117 137.552 294.388 136.284C295.658 135.016 297.167 134.009 298.827 133.323C300.487 132.636 302.267 132.283 304.064 132.283C305.861 132.283 307.641 132.637 309.301 133.323C310.961 134.009 312.47 135.015 313.741 136.284C316.307 138.845 317.749 142.319 317.749 145.942C317.749 149.564 316.307 153.038 313.74 155.599Z" fill="white"/>
<path d="M286.277 223.241C285.559 223.277 284.847 223.389 284.152 223.574C281.529 224.286 279.296 226.007 277.943 228.36C276.59 230.713 276.228 233.506 276.935 236.125L277.818 239.433L274.517 240.313C273.212 240.659 271.988 241.258 270.915 242.076C269.843 242.894 268.943 243.915 268.266 245.081C267.589 246.247 267.15 247.535 266.973 248.87C266.796 250.206 266.884 251.563 267.233 252.865C267.581 254.166 268.182 255.386 269.002 256.455C269.822 257.524 270.846 258.421 272.014 259.095C273.182 259.769 274.471 260.206 275.809 260.382C277.146 260.558 278.506 260.469 279.809 260.121L283.123 259.227L284.005 262.535C284.715 265.155 286.439 267.387 288.797 268.74C291.155 270.093 293.954 270.456 296.581 269.751C297.885 269.405 299.109 268.806 300.181 267.988C301.254 267.17 302.154 266.149 302.831 264.983C303.507 263.817 303.947 262.53 304.124 261.194C304.301 259.858 304.213 258.501 303.863 257.2L302.968 253.892L306.229 253.011C308.85 252.31 311.086 250.602 312.448 248.26C313.811 245.918 314.188 243.133 313.499 240.513C313.153 239.211 312.553 237.99 311.733 236.919C310.914 235.849 309.89 234.95 308.722 234.275C307.554 233.6 306.264 233.161 304.926 232.984C303.587 232.807 302.228 232.896 300.924 233.244L297.636 234.124L296.741 230.83C296.134 228.559 294.763 226.565 292.858 225.183C290.952 223.801 288.629 223.115 286.277 223.241Z" fill="white"/>
<path d="M194.587 135.823C192.784 135.827 191.014 136.306 189.455 137.21C187.108 138.571 185.397 140.804 184.695 143.421C183.994 146.038 184.36 148.827 185.713 151.175L187.437 154.149L184.457 155.87C182.101 157.222 180.378 159.451 179.666 162.069C178.955 164.687 179.313 167.48 180.662 169.835C181.334 171.005 182.23 172.032 183.301 172.855C184.371 173.679 185.594 174.284 186.899 174.634C188.204 174.985 189.566 175.075 190.906 174.899C192.246 174.723 193.538 174.285 194.708 173.609L197.701 171.889L199.398 174.823C200.755 177.173 202.99 178.89 205.612 179.597C208.235 180.305 211.032 179.945 213.39 178.598C214.562 177.928 215.59 177.035 216.416 175.968C217.241 174.902 217.848 173.683 218.2 172.381C218.553 171.08 218.645 169.723 218.47 168.386C218.296 167.05 217.859 165.761 217.185 164.593L215.475 161.632L218.402 159.951C219.575 159.281 220.603 158.386 221.428 157.317C222.253 156.249 222.859 155.029 223.21 153.726C223.562 152.424 223.652 151.065 223.476 149.727C223.299 148.39 222.861 147.101 222.184 145.933C221.507 144.767 220.607 143.746 219.535 142.927C218.462 142.109 217.239 141.51 215.934 141.164C214.63 140.818 213.269 140.733 211.932 140.913C210.594 141.093 209.305 141.534 208.138 142.212L205.211 143.906L203.501 140.945C202.598 139.384 201.298 138.088 199.733 137.189C198.168 136.29 196.393 135.818 194.587 135.823Z" fill="white"/>
<path d="M345.022 277.813C335.318 275.638 329.805 280.611 325.525 283.812C321.246 287.013 318.151 290.316 318.151 290.316C316.291 292.295 315.294 294.931 315.38 297.644C315.465 300.356 316.625 302.924 318.606 304.784C320.583 306.647 323.22 307.651 325.938 307.575C328.656 307.5 331.232 306.351 333.102 304.381C333.102 304.381 335.187 302.151 337.8 300.197C338.798 299.448 338.094 299.575 338.86 299.291C339.426 301.064 340.05 303.284 341.689 306.046C343.414 308.952 347.09 312.673 351.942 313.759C356.793 314.846 361.715 313.028 364.518 311.138C367.178 309.344 368.654 307.609 369.923 306.248C370.495 306.831 369.898 306.402 370.479 307.507C372.005 310.387 372.954 313.304 372.954 313.304C373.368 314.586 374.031 315.774 374.905 316.799C375.779 317.825 376.846 318.669 378.047 319.282C379.248 319.896 380.559 320.266 381.903 320.374C383.248 320.481 384.601 320.324 385.885 319.909C387.169 319.496 388.358 318.834 389.386 317.962C390.414 317.09 391.259 316.024 391.873 314.825C392.488 313.626 392.86 312.319 392.967 310.976C393.075 309.634 392.917 308.284 392.501 307.003C392.501 307.003 391.11 302.648 388.612 297.929C386.114 293.21 383.263 286.341 373.56 284.166C368.709 283.077 363.788 284.897 360.984 286.788C359.145 288.029 358.313 289.064 357.246 290.165C356.755 288.715 356.408 287.383 355.275 285.477C353.55 282.571 349.873 278.9 345.022 277.813Z" fill="white"/>
<path d="M253.499 117.353C250.875 118.064 248.64 119.785 247.286 122.138C245.932 124.492 245.569 127.285 246.277 129.906C248.407 137.834 248.79 145.881 247.994 153.851C247.856 155.192 247.984 156.547 248.371 157.838C248.759 159.13 249.398 160.332 250.252 161.377C251.106 162.421 252.158 163.287 253.348 163.925C254.538 164.563 255.842 164.959 257.187 165.093C259.892 165.358 262.592 164.54 264.694 162.82C266.796 161.1 268.129 158.618 268.4 155.918C269.398 145.917 268.948 135.248 266.075 124.562C265.363 121.943 263.639 119.712 261.281 118.361C258.922 117.009 256.125 116.647 253.499 117.353ZM254.813 168.471C252.351 168.172 249.864 168.774 247.812 170.164C245.76 171.554 244.282 173.639 243.65 176.032C242.881 178.39 242.994 180.946 243.97 183.227C244.945 185.507 246.716 187.357 248.954 188.434C251.479 189.441 254.302 189.407 256.802 188.339C259.302 187.271 261.275 185.256 262.288 182.737C262.418 182.433 262.744 181.754 262.995 180.419C263.494 177.752 262.913 174.996 261.379 172.756C259.845 170.516 257.484 168.974 254.813 168.471ZM236.226 198.516C233.579 199.143 231.29 200.793 229.861 203.103C226.155 209.083 223.598 212.278 223.598 212.278C221.915 214.406 221.145 217.113 221.458 219.806C221.77 222.499 223.14 224.959 225.266 226.646C226.323 227.485 227.536 228.108 228.835 228.479C230.134 228.85 231.494 228.962 232.836 228.807C234.178 228.652 235.476 228.234 236.656 227.578C237.836 226.921 238.874 226.039 239.712 224.981C239.712 224.981 243.055 220.719 247.288 213.89C248.002 212.748 248.483 211.477 248.704 210.15C248.925 208.823 248.882 207.465 248.577 206.154C248.272 204.843 247.711 203.605 246.927 202.51C246.142 201.416 245.15 200.486 244.005 199.775C242.856 199.064 241.577 198.586 240.242 198.37C238.907 198.154 237.541 198.204 236.226 198.516Z" fill="white"/>
<path d="M374.326 244.22C371.759 246.781 368.279 248.22 364.649 248.22C361.02 248.22 357.539 246.781 354.973 244.22C353.702 242.952 352.694 241.446 352.006 239.789C351.319 238.132 350.965 236.356 350.965 234.562C350.965 232.768 351.319 230.992 352.006 229.335C352.694 227.678 353.702 226.173 354.973 224.904C356.244 223.636 357.752 222.63 359.412 221.943C361.073 221.257 362.852 220.904 364.649 220.904C366.446 220.904 368.226 221.257 369.886 221.944C371.547 222.63 373.055 223.636 374.326 224.904C376.892 227.466 378.334 230.94 378.334 234.562C378.334 238.184 376.892 241.658 374.326 244.22Z" fill="white"/>
</svg>
